<svg xmlns="http://www.w3.org/2000/svg" viewBox="0 0 410 404" aria-hidden="true">
  <path fill="#646cff" d="M399.6 59.5 215.7 388.1c-3.8 6.8-13.6 6.9-17.5.1L10.6 59.5c-4.2-7.3 2.1-16.1 10.4-14.6l184.5 33.1c1 .2 2 .2 3 0L389.2 44.9c8.3-1.5 14.6 7.3 10.4 14.6Z"/>
  <path fill="#ffdd35" d="M292.9 1.2 156.8 27.9c-2.2.4-3.9 2.3-4 4.6l-8.4 142.4c-.2 3.4 2.9 6.1 6.2 5.4l37.9-8.7c3.5-.8 6.7 2.3 6 5.8l-11.3 55.4c-.7 3.6 2.6 6.7 6.1 5.6l23.4-7.1c3.5-1.1 6.8 2.1 6.1 5.7l-17.9 86.7c-1 4.9 5.5 7.6 8.3 3.5l1.9-2.8 110.9-221.3c1.8-3.6-1.3-7.7-5.2-6.9l-39 7.5c-3.7.7-6.8-2.8-5.8-6.4l25.4-88.5c1-3.6-2.1-7-5.8-6.3Z"/>
</svg>
